<?xml version="1.0" standalone="no"?><!DOCTYPE svg PUBLIC "-//W3C//DTD SVG 1.1//EN" "http://www.w3.org/Graphics/SVG/1.1/DTD/svg11.dtd"><svg t="1548659530714" class="icon" style="" viewBox="0 0 1024 1024" version="1.1" xmlns="http://www.w3.org/2000/svg" p-id="2965" xmlns:xlink="http://www.w3.org/1999/xlink" width="200" height="200"><defs><style type="text/css"></style></defs><path d="M512 32C247.04 32 32 247.04 32 512s215.04 480 480 480 480-215.04 480-480S776.96 32 512 32z m58.56 725.76c0 25.92-21.12 47.04-47.04 47.04h-23.52c-25.92 0-47.04-21.12-47.04-47.04V476.96c0-25.92 21.12-47.04 47.04-47.04h23.52c25.92 0 47.04 21.12 47.04 47.04v280.8zM512 359.84c-32.16 0-58.56-26.4-58.56-58.56 0-32.16 26.4-58.56 58.56-58.56s58.56 26.4 58.56 58.56c0 32.16-26.4 58.56-58.56 58.56z" p-id="2966" fill="rgb(106, 90, 205)"></path></svg>