<?xml version="1.0" standalone="no"?><!DOCTYPE svg PUBLIC "-//W3C//DTD SVG 1.1//EN" "http://www.w3.org/Graphics/SVG/1.1/DTD/svg11.dtd"><svg t="1548593468029" class="icon" style="" viewBox="0 0 1024 1024" version="1.1" xmlns="http://www.w3.org/2000/svg" p-id="3073" xmlns:xlink="http://www.w3.org/1999/xlink" width="200" height="200"><defs><style type="text/css"></style></defs><path d="M243.2 732.8l134.4-134.4C361.6 576 352 544 352 512c0-89.6 70.4-160 160-160 32 0 64 9.6 89.6 25.6l124.8-124.8C665.6 214.4 592 192 512 192 297.6 192 153.6 358.4 67.2 496c-6.4 9.6-6.4 22.4 0 32 44.8 70.4 102.4 147.2 176 204.8zM956.8 496c-41.6-70.4-99.2-147.2-176-204.8l-134.4 134.4c16 22.4 25.6 54.4 25.6 86.4 0 89.6-70.4 160-160 160-32 0-64-9.6-89.6-25.6l-124.8 124.8c60.8 38.4 134.4 60.8 214.4 60.8 185.6 0 374.4-128 444.8-307.2 3.2-9.6 3.2-19.2 0-28.8z" p-id="3074" fill="rgb(106, 90, 205)"></path></svg>